<svg xmlns="http://www.w3.org/2000/svg" xmlns:xlink="http://www.w3.org/1999/xlink" id="Layer_1" data-name="Layer 1" viewBox="0 0 172.52 43.67"><defs><style>      .cls-1 {        fill: none;      }      .cls-2 {        fill: #ec1c24;      }      .cls-3 {        fill: #10357e;      }      .cls-4 {        clip-path: url(#clippath);      }    </style><clipPath id="clippath"><rect class="cls-1" x="0" y="0" width="172.52" height="43.67"></rect></clipPath></defs><g class="cls-4"><path class="cls-2" d="M20.07,37.27c-8.72,0-15.8-6.92-15.8-15.46s7.07-15.46,15.8-15.46,15.8,6.92,15.8,15.46-7.07,15.46-15.8,15.46M22.23.68C10.32.68.68,10.15.68,21.83s9.65,21.16,21.55,21.16,21.55-9.47,21.55-21.16S34.13.68,22.23.68"></path><path class="cls-3" d="M22.23,42.31c-8.78,0-16.3-5.35-19.38-12.9h2.7c2.78,5.08,8.24,8.54,14.53,8.54,4.26,0,8.14-1.61,11.07-4.22h8.05c-3.79,5.19-9.97,8.59-16.96,8.59M29.05,33.68c-2.51,1.82-5.62,2.92-8.98,2.92-5.5,0-10.3-2.89-12.95-7.19h.54c1.07-.07,2.13.2,3.01-.6.47-.43.69-.79.85-1.4l1.79-6.17,2.29,8.16h4.64l2.25-8.16,2.72,9.49c.34.84.68,1.3,1.38,1.88.81.67,1.5.97,2.46,1.08M32.82,27.59l-4-14.14h-8.62l-2.32,8.28-2.38-8.27h-4.44l-3.37,12.01c-.07.53-.27.86-.69,1.19-.35.27-.64.37-1.05.39-.63-1.63-.99-3.38-.99-5.22,0-8.15,6.78-14.78,15.12-14.78s15.12,6.63,15.12,14.78c0,2.48-.63,4.81-1.74,6.86-.32-.31-.5-.61-.64-1.09M22.23,1.35c11.51,0,20.88,9.19,20.88,20.48,0,2.66-.54,5.2-1.49,7.54h-5.7c-.49.02-.9.03-1.27-.05,1.21-2.25,1.91-4.8,1.91-7.51,0-8.9-7.39-16.13-16.47-16.13S3.6,12.92,3.6,21.81c0,1.83.33,3.58.9,5.22h-2.44c-.45-1.66-.71-3.4-.71-5.21C1.35,10.54,10.72,1.35,22.23,1.35M42.97,29.67c.96-2.43,1.49-5.08,1.49-7.84C44.45,9.79,34.48,0,22.23,0S0,9.79,0,21.83c0,1.82.23,3.58.66,5.27L.04,29.41h1.35c3.14,8.31,11.3,14.25,20.84,14.25,7.79,0,14.65-3.96,18.62-9.94h3.33l-1.22-4.05Z"></path><path class="cls-3" d="M52.38,31.99h4.73l1.53-11.7h.05l4.2,11.7h1.89l4.39-11.7h.05l1.34,11.7h4.76l-2.77-20.32h-4.73l-3.93,10.86-3.71-10.86h-4.68l-3.11,20.32ZM89.04,28.46l1.19,3.53h5.07l-6.89-20.32h-5.19l-7.04,20.32h5.05l1.26-3.53h6.55ZM87.75,24.42h-3.96l1.97-6.47h.05l1.94,6.47ZM105.77,23.67c2.6-.51,4.01-2.94,4.01-5.74,0-4.34-2.74-6.25-6.36-6.25h-7.11v20.32h4.76v-7.82h.05l4.49,7.82h5.92l-5.75-8.33ZM101.07,15.72h.46c1.55,0,3.3.32,3.3,2.53s-1.75,2.53-3.3,2.53h-.46v-5.07ZM124.93,28.46l1.19,3.53h5.07l-6.89-20.32h-5.19l-7.04,20.32h5.05l1.26-3.53h6.55ZM123.64,24.42h-3.96l1.97-6.47h.05l1.94,6.47ZM139.74,27.52l8.62-15.85h-15.15v4.47h7.19l-8.67,15.85h15.68v-4.47h-7.67ZM157.25,27.52l8.62-15.85h-15.15v4.47h7.19l-8.67,15.85h15.68v-4.47h-7.67ZM172.52,11.67h-4.76v20.32h4.76V11.67Z"></path></g></svg>